<?xml version="1.0" encoding="utf-8"?>
<!-- Generator: Adobe Illustrator 27.6.1, SVG Export Plug-In . SVG Version: 6.00 Build 0)  -->
<svg version="1.1" id="Vrstva_1" xmlns="http://www.w3.org/2000/svg" xmlns:xlink="http://www.w3.org/1999/xlink" x="0px" y="0px"
	 viewBox="0 0 3840 2160" style="enable-background:new 0 0 3840 2160;" xml:space="preserve">
<style type="text/css">
	.st0{fill:#FFFFFF;}
	.st1{fill:none;stroke:#FFFFFF;stroke-width:4;stroke-miterlimit:10;}
</style>
<g>
	<g>
		<g>
			<path class="st0" d="M2955.7,1341.9c-3.9-0.4-7.7-0.9-11.6-1.3c-30.7-3.2-59.3-11.5-84.6-28c-26.1-16.9-44.1-39.5-55.7-66.4
				c-7.1-16.5-11.3-33.6-13.5-51.1c-1.3-10.3-1.7-20.5-1.7-30.8c0-55.8,0-111.6,0-167.3c0-1.6,0-3.1,0-5c-1.1-0.1-2-0.3-3-0.3
				c-13.5,0-26.9,0-40.4,0.1c-6.9,0.1-13.8,1.1-20.5,2.7c-15.3,3.7-25,12.4-29.4,26.2c-2.8,9-3.7,18.2-3.7,27.6
				c0,93.2,0,192.1,0,285.3c0,1.4,0,2.9,0,4.5h-90.2c0-1.3,0-2.5,0-3.7c0-94.9-0.1-195.5,0.1-290.4c0-18.9,2.8-37.5,9.7-55.5
				c13.4-34.8,39.9-57.1,78.9-67.4c15.3-4,30.9-6.1,46.7-6.3c20.7-0.3,68.2,1,69.5,1c22.5,0,45,0,67.5,0c1.4,0,2.9,0,4.7,0
				c0,1.8,0,3.2,0,4.7c0,81.2,0,162.4,0,243.6c0,13.4,1.4,26.6,5.2,39.6c3.2,11,7.9,21.4,15.4,30.7c10.6,13.2,24.7,21.8,42,26
				c19.8,4.8,39.8,4.9,59.7,0.3c26.2-6.1,43.8-21.1,54.1-43.5c5.1-11.2,8-22.8,9-34.8c0.7-8,1.1-16.1,1.1-24.1
				c0.1-79.1,0-158.1,0-237.2c0-1.5,0-3.1,0-4.9h89.7c0.1,0.5,0.2,1,0.3,1.6c0.1,0.5,0.1,1.1,0.1,1.6c0,83.8,0.1,167.6-0.1,251.4
				c-0.1,25.7-4.5,50.8-14.7,75c-8.3,19.7-20.3,37.3-36.8,52.3c-17.1,15.6-37.5,26.6-60.3,33.8c-17.4,5.5-35.3,8.5-53.6,9.6
				c-0.9,0.1-1.9,0.4-2.8,0.6C2976.5,1341.9,2966.1,1341.9,2955.7,1341.9z"/>
			<path class="st0" d="M3543.8,1337.7c-0.9,0-1.7-0.1-2.6-0.1c-27.6,0-55.3,0-82.9,0c-1.2,0-2.4,0-3.9,0c-0.2-0.9-0.4-1.6-0.4-2.3
				c-0.1-1,0-2,0-3c0-81.7,0-163.5,0-245.2c0-14.3-2.1-28.4-6.8-42.1c-2.6-7.6-6.1-14.8-10.8-21.5c-10.4-15-25.1-24.9-43.9-29.6
				c-20.6-5.2-41.3-5.1-61.9,0.1c-24.9,6.3-41.6,21-51.5,42.5c-5.6,12.1-8.5,24.9-9.5,37.9c-0.6,7-0.8,14-0.8,21
				c-0.1,79.2,0,158.3,0,237.5c0,1.4,0,2.9,0,4.2c-2.9,0.7-84.1,0.9-89.6,0.3c-0.1-1.1-0.2-2.3-0.2-3.5c0-10.7,0-21.4,0-32.1
				c0-70.6-0.1-141.2,0-211.8c0-23.9,2.9-47.5,10.8-70.5c7.1-20.4,17.6-39.1,33-55.4c17.9-19,40.1-32.2,66-40.6
				c19.4-6.4,39.6-9.5,60.2-10.4c30.1-1.3,59.6,1.5,87.9,11.4c42,14.7,71.4,41.2,89.1,78.5c8.2,17.3,13,35.4,15.5,54.1
				c1.1,8.3,1.5,16.6,1.6,25c0,0.8,0.3,1.7,0.5,2.5V1337.7z"/>
		</g>
		<path class="st0" d="M428.1,1336.8V819c1.3-0.1,2.4-0.2,3.5-0.2c73.1,0,146.1-0.2,219.2,0.1c31.4,0.1,62.4,3.9,92.5,13.3
			c23.1,7.2,44.6,17.7,63.4,33.1c24.7,20.1,41.8,45.6,52.5,75.5c6.4,17.8,10.4,36.1,12.6,54.8c1.8,15,2.6,30.1,2.5,45.2
			c0,27.4,0.2,54.7-0.1,82.1c-0.3,27.6-3.5,54.8-11.6,81.2c-7.2,23.4-17.9,45-33.7,63.9c-18.7,22.4-41.9,38.3-68.8,49.3
			c-18.2,7.4-37.2,12.2-56.6,15.2c-16.2,2.5-32.5,4-48.9,4.2c-6.2,0.1-12.5,0.2-18.7,0.2c-67.6,0-135.3,0-202.9,0
			C431.5,1336.8,429.9,1336.8,428.1,1336.8z M514.3,1262.7c1.8,0,3.3,0,4.7,0c38.7,0,77.3,0,116,0c15.5,0,30.9-0.4,46.3-2.4
			c14.2-1.9,28.2-4.9,41.5-10.4c20.1-8.2,35.7-21.3,46.1-40.5c5.8-10.8,9.6-22.4,12.3-34.4c3.9-17.7,5.2-35.6,5.3-53.6
			c0.2-26.2,0-52.4,0.1-78.6c0-15.6-0.5-31.1-2.7-46.6c-1.9-13.9-5-27.4-10.4-40.4c-8.3-20-21.7-35.5-41-45.6
			c-11.1-5.8-23-9.6-35.2-12.1c-18.2-3.7-36.6-5-55-5c-41.4,0-82.9,0-124.3,0c-1.1,0-2.2,0.1-3.6,0.2V1262.7z"/>
		<path class="st0" d="M1967.3,1339.3H1884c0-12.3,0-24.5,0-37.1c-1,0.4-1.6,0.6-2.1,0.9c-24.5,19-52.6,29.9-82.6,36.2
			c-16.4,3.4-33,5.2-49.8,5.7c-14.1,0.4-28.1,0.1-42.1-1.6c-22.3-2.7-43.8-8-63.5-19.3c-29.2-16.7-46.6-41.6-51.8-74.9
			c-2.6-16.8-2.3-33.6,1.9-50.1c5.6-21.9,17.4-39.8,34.3-54.5c15.1-13.1,32.4-22.3,50.9-29.6c18.3-7.2,37.3-12.1,56.5-16.1
			c27.5-5.8,55.1-11.1,82.3-18.6c14.4-4,28.7-8.1,41.9-15.1c5-2.6,9.7-5.8,14.2-9.2c8.1-6.3,10.3-14.9,8.8-24.8
			c-1.4-9.7-6.5-17.1-14.2-22.9c-8.4-6.4-18.2-9.9-28.3-12.5c-12.6-3.2-25.5-4.4-38.4-4.7c-14.2-0.4-28.4,0.3-42.4,2.6
			c-15.8,2.6-31,7-44.6,16.1c-15.2,10.2-23.6,24.6-25.8,42.7c-0.5,4-0.6,8.1-0.7,12.1c-0.1,9.1,0,18.2,0,27.4c0,1.1-0.1,2.3-0.2,3.6
			c-28.3,0-56.5,0-84.8,0c-0.1-0.6-0.3-1.2-0.3-1.9c0-12.1-0.5-24.3,0.2-36.4c2.6-47.7,23.8-84.5,64.5-109.8
			c19.5-12.1,40.8-19.2,63.1-23.7c24.1-4.9,48.5-6.1,73-5.7c18,0.4,35.9,2,53.6,5.6c19.1,3.9,37.5,10,54.2,20.1
			c30.5,18.4,48.6,45.3,53.7,80.6c1.1,7.5,1.6,15.2,1.6,22.8c0.1,95.9,0.1,191.9,0.1,287.8
			C1967.3,1336.2,1967.3,1337.6,1967.3,1339.3z M1883.2,1132.2c-1,0.3-1.5,0.5-2,0.7c-14.9,7.2-30.5,12.6-46.5,16.5
			c-25.2,6.2-50.4,12.1-75.7,18c-13.9,3.3-27.8,6.6-41.2,11.8c-10.6,4.1-20.8,9-29.2,16.8c-6.3,5.8-10.6,12.8-11.9,21.3
			c-1.3,8.3-0.9,16.6,1.5,24.7c1.9,6.3,5.4,12,10.5,16.1c6.6,5.4,14.2,8.4,22.3,10.4c15.9,4,32.1,4.8,48.4,3.9
			c21.2-1.2,41.5-5.7,60.8-14.8c19-8.9,35.2-21.2,46.9-38.8c10.6-15.9,16.4-33.4,16.2-52.8c-0.1-10,0-20.1,0-30.1
			C1883.2,1134.8,1883.2,1133.7,1883.2,1132.2z"/>
		<path class="st0" d="M987.1,1095.1H902c-0.1-1-0.3-1.9-0.3-2.8c0.1-12.2-0.3-24.5,0.3-36.7c1.6-32.1,12.6-60.6,34.5-84.4
			c14.9-16.2,32.9-27.7,53.1-36.1c17.4-7.2,35.4-11.7,54-14.4c19.9-2.9,40-3.9,60.1-3.3c24.1,0.7,47.9,3.3,71,10.3
			c16.3,4.9,31.8,11.8,45.6,22c23.8,17.6,38,41,43.3,70c1.5,8.4,2.2,16.9,2.2,25.5c0,96.5,0,193,0,289.6c0,1.2,0,2.5,0,3.9h-83.3
			c0-12.3,0-24.5,0-37.2c-0.9,0.4-1.4,0.6-1.8,0.9c-20.6,16.1-44,26.4-69.1,33.2c-18.4,4.9-37.3,7.6-56.3,8.6
			c-12.5,0.7-24.9,0.7-37.3-0.2c-24.7-1.8-48.7-6.5-71-17.9c-19.8-10.2-35.6-24.6-45.9-44.6c-5.3-10.3-8.7-21.3-10.5-32.8
			c-2.3-15-2.3-29.9,0.7-44.8c4.9-24.1,17.2-43.8,35.6-59.9c14.4-12.5,30.8-21.4,48.4-28.6c19.4-7.9,39.6-13.1,60.1-17.4
			c27.5-5.8,55.1-11.2,82.3-18.7c14-3.9,27.9-8.1,40.9-14.8c3.9-2,7.7-4.3,11.2-6.9c11.4-8.4,14.7-17.5,10.3-32.9
			c-1.6-5.8-5.2-10.5-9.6-14.5c-7.2-6.5-15.7-10.4-24.9-13.2c-13.8-4.2-27.9-5.9-42.3-6.4c-10.9-0.4-21.7-0.2-32.5,0.9
			c-17.2,1.7-34,5.1-49.5,13.1c-17.9,9.3-29.4,23.5-32.9,43.6c-0.7,4.2-1.1,8.5-1.2,12.7c-0.2,10-0.1,20.1-0.1,30.1
			C987.1,1092.3,987.1,1093.5,987.1,1095.1z M1181.8,1131.8c-1.1,0.4-1.8,0.6-2.4,0.9c-13.7,6.6-27.9,11.6-42.6,15.3
			c-23,5.8-46.2,11.1-69.3,16.7c-15,3.6-30.2,6.7-44.8,11.8c-11.4,4-22.4,8.6-32,16c-9.9,7.6-15.7,17.4-16.2,30
			c-0.3,6.4,0.2,12.7,2,18.8c3.3,11.4,11.2,18.5,21.8,23.1c9.2,4,18.9,5.9,28.8,6.9c16.2,1.6,32.5,1.4,48.6-1.2
			c18-2.9,35.2-8.2,51.2-17.1c18.8-10.4,34.1-24.5,44-43.8c6.9-13.4,10.9-27.6,10.8-42.8c-0.1-10,0-20.1,0-30.1
			C1181.8,1134.9,1181.8,1133.7,1181.8,1131.8z"/>
		<path class="st0" d="M1569.4,1264.8c-8.4,1-16.7,2.1-25.1,2.9c-15.8,1.6-31.7,2.6-47.7,2c-9.7-0.4-19.2-1.6-28.2-5.6
			c-6.4-2.8-11.6-7.9-14.4-14.3c-2.9-6.8-3.8-13.9-3.8-21.2c0-41.1,0-82.2,0-123.3c0-0.3,0-5.8,0-13.7h108.3v-75.8h-108.3
			c0-1.1,0-2.2,0-3.3c0-5.3,0-10.6,0-15.9c0-5.2,0-10.4,0-15.6c0-5.2,0-10.4,0-15.6c0-5.2,0-33.5,0-38.7c0-5.3,0.1-49.3-0.1-54.4
			h-87.9c0,7.5,0,40.7,0,48c0,4.5,0,32.1,0,42.4c0,7.3,0,14.5,0,21.8c0,7.4,0.1,14.8,0,22.2c0,3,0,6.1,0,9.1h-64.8v75.8h64.8l0,9.5
			c0,1.9,0,3.4,0,4.9c0,44.9,0,89.8,0,134.8c0,5.1,0.1,10.2,0.4,15.2c0.6,9.6,2.1,19,4.8,28.3c3.8,12.6,9.8,23.9,19.6,32.9
			c8.8,8.2,19.1,13.6,30.4,17.5c16.1,5.5,32.7,7.8,49.6,9c13.3,1,26.7,1.3,40.1,1c18.7-0.4,37.3-1.8,55.8-4.4
			c3.1-0.4,6.1-1.1,9.2-1.7v-73.8C1571.2,1264.7,1570.3,1264.7,1569.4,1264.8z"/>
		<g>
			<path class="st0" d="M2119.1,994.1c109.8,0,219.7,0,329.5,0c0.5,0.1,0.9,0.3,1.4,0.3c12.9,0.2,25.5,2.4,37.7,6.8
				c15.9,5.7,30,14.6,41.8,27.3c10.9,11.6,19,25.3,24.9,40.4c8.3,21.1,11.8,43.3,12.8,66c0,0.6,0.2,1.1,0.3,1.6c0,6.3,0,12.6,0,18.8
				c-0.1,0.3-0.2,0.6-0.3,1c-0.7,8.2-1.1,16.3-2.1,24.5c-2.3,19-7.4,37.1-15.9,54c-9.9,19.8-23.5,35.9-42,47
				c-18.5,11.1-38.6,16.2-59.7,16.2c-108.6,0.1-217.2,0.1-325.8,0.1c-10.2,0-20.2-1-30.1-3.5c-31.6-7.9-55.6-26.5-71.5-56.7
				c-12-22.7-17-47.5-19.2-73c-0.3-3.2-0.4-6.3-0.7-9.5c0-5.1,0-10.2,0-15.3c0.1-0.3,0.2-0.6,0.3-1c0.3-5.4,0.6-10.9,1-16.3
				c1.4-16.8,4.6-33.2,10.2-49c7.1-20,17.8-37.5,33.2-51.4c20.2-18.2,44-26.2,70.1-27.8C2116.4,994.4,2117.8,994.2,2119.1,994.1z
				 M2284,1076.8c0,0,0,0.1,0,0.1c-53.9,0-107.7,0-161.6,0c-6.1,0-12.1,0.8-18,2.3c-17.2,4.4-29.3,15-35.7,32.7
				c-3.5,9.7-4.9,19.8-5.1,30.2c-0.2,11.3,0.5,22.5,3.6,33.4c5.1,17.5,15.2,29.8,31.8,35.7c8.5,3.1,17.3,4,26.2,4
				c106.2,0,212.3,0,318.5,0c6.5,0,12.9-0.6,19.2-2.2c17.6-4.4,30.1-15.1,36.6-33.3c2.9-8.2,4.4-16.8,4.9-25.5
				c0.6-12.2,0.1-24.3-3.1-36.1c-3.9-14.5-11.2-26.3-24-33.6c-9.4-5.3-19.5-7.6-30-7.7c-14.7-0.2-29.4-0.1-44.2-0.1
				C2363.3,1076.8,2323.7,1076.8,2284,1076.8z"/>
		</g>
	</g>
	<g>
		<path class="st0" d="M338.4,873.7c-0.7-4.8-2.6-8.4-5.8-10.9c-3.1-2.4-7.1-3.7-11.9-3.7c-2.2,0-4.5,0.4-7,1.1
			c-2.5,0.7-4.8,2.1-6.9,4.2c-2.1,2-3.8,4.9-5.2,8.5c-1.4,3.6-2.1,8.4-2.1,14.3c0,3.2,0.4,6.4,1.1,9.6c0.7,3.2,1.9,6,3.6,8.5
			c1.6,2.5,3.8,4.5,6.4,6.1c2.6,1.5,5.7,2.3,9.4,2.3c5,0,9.1-1.5,12.4-4.6c3.2-3.1,5.3-7.4,6.1-13h17.1
			c-1.6,10.1-5.4,17.8-11.5,23.1c-6,5.3-14.1,8-24,8c-6.1,0-11.5-1-16.1-3.1c-4.6-2-8.6-4.8-11.8-8.4c-3.2-3.5-5.6-7.8-7.3-12.7
			c-1.6-4.9-2.5-10.2-2.5-15.9c0-5.8,0.8-11.2,2.4-16.3c1.6-5.1,4-9.5,7.2-13.3c3.2-3.7,7.2-6.7,11.9-8.8c4.7-2.1,10.3-3.2,16.7-3.2
			c4.5,0,8.8,0.6,12.8,1.7c4,1.1,7.6,2.9,10.8,5.2c3.1,2.3,5.7,5.2,7.7,8.7c2,3.5,3.2,7.6,3.6,12.4H338.4z"/>
	</g>
	<circle class="st1" cx="318.9" cy="886.5" r="70.2"/>
</g>
</svg>
